<svg xmlns="http://www.w3.org/2000/svg" viewBox="0 0 1286 365"><path fill="#fbfbfb" stroke="#fbfbfb" d="M235.683.65c-1.301 1.301-.677 17.007.885 22.267.862 2.904 1.326 5.523 1.029 5.819-.296.296 2.662 3.964 6.572 8.151 9.392 10.056 9.92 10.967 11.453 19.779 1.219 7.012 1.173 7.816-.655 11.399-1.082 2.121-1.969 4.661-1.971 5.645-.004 1.611-7.416 24.044-8.205 24.832-.179.18-3.638-.562-7.686-1.647-4.047-1.086-7.433-1.844-7.524-1.685-.09.16-1.417 2.244-2.948 4.632-1.53 2.388-2.526 4.598-2.212 4.912.806.806 5.579-1.505 5.579-2.7 0-.544 3.78 1.021 8.401 3.478 12.927 6.876 13.786 6.605 23.093-7.282 5.644-8.421 5.641-8.42 8.592-3.5 1.237 2.063 3.679 5.55 5.426 7.75 1.748 2.2 3.36 4.45 3.583 5 1.259 3.108 21.321 28.529 22.269 28.218 4.2-1.378-1.494-18.451-17.491-52.448-2.13-4.526-3.873-8.983-3.873-9.904 0-4.738 8.134-15.749 29.25-39.594 6.085-6.872 6.46-7.662 4.542-9.58-.943-.943-2.201-.25-5.75 3.173-3.977 3.835-24.411 17.689-25.965 17.603-2.955-.163-4.353-3.102-3.241-6.814 1.712-5.714 1.455-7.654-1.47-11.131-4.723-5.613-10.163-2.031-12.261 8.072l-.605 2.915-8.714-7.57C246.547 22.414 242.57 16.69 239.498 7c-1.892-5.967-2.757-7.408-3.815-6.35m420.323 70.07c.508 1.529 12.868 41.03 27.468 87.78 14.599 46.75 26.981 86.012 27.514 87.25.928 2.155 1.477 2.25 13.012 2.25 11.533 0 12.084-.095 13.018-2.25.537-1.238 14.42-41.625 30.853-89.75l29.877-87.5-12.009-.282c-6.605-.155-12.15-.14-12.324.034-1.456 1.455-41.671 127.315-45.532 142.498-1.294 5.088-2.584 9.249-2.868 9.248-.283-.001-2.267-6.863-4.408-15.25-2.142-8.386-12.076-42.473-22.077-75.748l-18.184-60.5-12.631-.28-12.632-.279.923 2.779M74.45 75.461C25.288 84.392-1.528 117.905.251 168.191c1.425 40.328 22.278 67.485 59.567 77.58 19.803 5.361 54.3 3.699 79.693-3.839l7.489-2.223v-87.738l-30.75.265-30.75.264v25l14.75.277 14.75.276v41.792l-3.75 1.318c-5.935 2.085-30.265 1.75-37.75-.52-22.925-6.955-36.537-24.155-39.588-50.026-3.211-27.226 6.874-50.259 27.088-61.87 15.681-9.006 45.545-10.495 66.229-3.302 3.727 1.296 6.953 2.063 7.169 1.706.216-.358 1.833-6.025 3.594-12.594 3.756-14.011 4.127-13.23-7.807-16.44-15.729-4.231-40.555-5.413-55.735-2.656m101.021 6.761c-.268.703-.371 38.178-.229 83.278l.258 82h29v-166l-14.271-.278c-10.865-.211-14.387.028-14.758 1M356 150.842c0 38.413-.295 75.988-.655 83.5L354.69 248h25.06l.625-3.125c.344-1.719.625-5.608.625-8.644v-5.519l3.377 4.423c15.359 20.116 49.364 19.793 68.488-.65 24.426-26.112 20.87-78.237-6.577-96.418-17.638-11.682-45.786-8.417-58.299 6.762L385 148.456V81h-29v69.842m249.471-68.62c-.268.703-.371 38.178-.229 83.278l.258 82h29v-166l-14.271-.278c-10.865-.211-14.387.028-14.758 1m257.003-.007c-.27.707-.374 38.185-.232 83.285l.258 82h21v-166l-10.268-.285c-7.655-.213-10.393.042-10.758 1M917 164.5V248h21V81h-21v83.5M806.667 97.667c-.367.366-.667 5.766-.667 12V121h24V97h-11.333c-6.234 0-11.634.3-12 .667M259.5 121.509c-3.85 1.356-8.949 3.839-11.332 5.516-2.383 1.677-4.044 2.583-3.691 2.012 1.641-2.656-1.979-.504-8.17 4.856-10.595 9.173-20.673 28.433-21.925 41.903-2.385 25.663 12.622 47.679 43.618 63.99 10.906 5.739 12.499 6.104 27.703 6.341 11.089.173 11.26.14 16.916-3.226 9.702-5.775 28.014-24.242 23.631-23.831-.789.074-8.476 4.95-17.432 11.056-4.387 2.991-6.544 3.744-12.318 4.301-3.85.371-9.326.916-12.168 1.212-11.318 1.176-30.09-6.222-35.165-13.859-4.691-7.057-6.912-8.987-9.034-7.851-6.213 3.325-13.212-26.794-10.419-44.835 1.991-12.862 13.355-32.011 21.468-36.175 2.025-1.04 3.991-2.389 4.368-2.999.376-.61 3.609-2.421 7.182-4.024 5.149-2.31 6.268-3.192 5.391-4.248-.608-.732-.81-1.628-.448-1.99 1.166-1.165-1.019-.671-8.175 1.851m53.167 6.158c-1.362 1.362-.563 3.169 3.383 7.653l4.051 4.601-1.559 5.249c-2.808 9.457 1.494 15.341 10.729 14.675 3.688-.267 4.168-.034 4.8 2.328.678 2.536.525 2.647-4.5 3.275-11.099 1.387-15.085 7.192-12.052 17.552.886 3.025 2.062 8.4 2.614 11.944 1.33 8.548 3.401 13.449 5.365 12.695 1.29-.495 1.274-.221-.11 1.891-2.509 3.829.273 3.092 4.1-1.087 1.792-1.956 4.093-5.106 5.113-7 1.019-1.894 2.539-3.449 3.376-3.455.838-.007 2.593-1.663 3.9-3.68 2.704-4.172 3.348-22.178.998-27.911-.653-1.593-1.363-4.022-1.577-5.397-.213-1.375-.982-2.955-1.709-3.512-.726-.556-2.78-3.931-4.565-7.5-4.455-8.909-7.466-12.663-12.018-14.985-2.133-1.088-4.679-3.334-5.658-4.991-1.726-2.922-3.311-3.716-4.681-2.345M519 131.639c-13.956 2.646-27.457 8.311-26.582 11.155.289.938 1.48 4.856 2.647 8.706 2.727 8.994 2.546 8.873 8.756 5.901 11.312-5.414 30.415-6.962 37.877-3.071 4.823 2.515 8.28 7.688 8.957 13.404l.587 4.957-11.371.595c-26.413 1.381-45.452 10.946-52.639 26.444-5.682 12.253-3.21 29.392 5.705 39.545 12.689 14.453 41.79 14.165 57.411-.567l3.488-3.289.639 4.54c1.213 8.618.183 8.041 14.342 8.041H581.5l-.285-36.25c-.156-19.937-.721-39.277-1.255-42.977-2.542-17.608-11.062-29.173-25.678-34.852-5.704-2.216-28.016-3.66-35.282-2.282m475.404.403C982.337 133.278 966 139.191 966 142.323c0 .709.937 4.065 2.083 7.457l2.083 6.169 4.9-2.483c7.259-3.678 15.331-5.466 24.676-5.466 15.793 0 23.39 6.399 24.915 20.988l.628 6.012-6.393.02c-20.382.063-41.1 6.659-50.784 16.168-13.159 12.922-14.29 34.607-2.49 47.732 13.486 15 40.939 14.709 56.544-.599l4.663-4.573.66 5.876c1.01 8.987.351 8.487 10.748 8.164 9.224-.287 9.266-.3 8.997-2.788-.148-1.375-.648-20.275-1.111-42-.567-26.624-1.249-40.804-2.093-43.5-6.548-20.916-23.254-30.16-49.622-27.458m113.596.063c-26.728 3.804-44.376 27.225-44.376 58.895 0 22.404 7.96 38.957 23.589 49.059 17.166 11.095 42.661 8.565 55.646-5.521l4.141-4.493v10.372c0 18.629-5.928 30.224-18.221 35.636-11.182 4.924-31.605 3.562-44.806-2.988l-5.926-2.94-2.104 7.065c-1.157 3.886-2.341 7.684-2.631 8.44-.751 1.955 10.378 6.883 19.896 8.81 30.724 6.219 58.567-3.931 68.403-24.934 6.424-13.717 6.623-15.917 7.115-78.795l.444-56.788-9.335.288-9.335.289-.294 7.837-.293 7.836-3.39-4.44c-7.917-10.367-23.269-15.799-38.523-13.628m124.978-.119c-28.249 3.59-46.157 26.999-46.294 60.514-.183 45.189 35.779 67.718 85.104 53.314 8.937-2.61 8.784-2.358 6.676-10.962-1.936-7.899-.897-7.533-11.964-4.21-4.469 1.342-9.449 1.808-19.521 1.83-13.291.028-13.635-.028-20.197-3.259-11.298-5.562-17.594-14.854-19.296-28.481l-.716-5.732h79.462l-.461-13.25c-1.189-34.185-21.882-53.691-52.793-49.764m-963.682 3.343c.438 1.141-.498 1.408-4.566 1.303-4.972-.128-5.182-.018-7.402 3.868-1.256 2.2-2.908 3.882-3.671 3.737-1.809-.343-12.51 11.328-13.31 14.516-.638 2.541 1.153 12.361 2.837 15.561.731 1.388 1.644 1.663 3.886 1.171 2.745-.603 2.93-.45 2.93 2.436 0 2.041.495 3.079 1.469 3.079.894 0 1.243-.586.893-1.5-.398-1.036.065-1.5 1.5-1.5 1.549 0 1.916.443 1.446 1.75-.501 1.395-.126 1.293 1.846-.5 2.553-2.321 4.846-2.948 4.846-1.325 0 .509 4.035 1.241 8.968 1.626 8.357.654 8.899.829 7.964 2.575-.551 1.031-1.507 1.874-2.123 1.874-3.003 0-7.998 5.258-7.479 7.874 1.612 8.13 7.559 15.474 13.868 17.126 4.109 1.076 6.429 7.473 4.55 12.542-3.203 8.641.346 9.876 8.17 2.842 8.937-8.036 11.715-14.684 12.527-29.979.592-11.159-.859-14.252-7.96-16.964-4.485-1.713-4.824-1.713-7.971-.019-3.625 1.953-6.709 1.099-9.321-2.581-.934-1.316-2.574-1.841-5.75-1.841-5.178 0-6.028-2.208-2.193-5.701 5.881-5.357 8.697-5.429 11.161-.288 3.416 7.13 5.969 4.502 7.188-7.399 1.35-13.175-1.476-21.571-8.099-24.063-4.243-1.597-16.798-1.767-16.204-.22M808 191v57h21V134h-21v57m420.909-42.511c-9.293 2.993-18.166 14.208-20.776 26.261l-.92 4.25h29.393c33.438 0 30.427.98 28.272-9.201-3.664-17.313-19.41-26.642-35.969-21.31m-117.762.539c-28.713 5.956-36.381 57.646-11.288 76.099 15.285 11.241 38.375 4.227 45.08-13.694 3.566-9.532 3.062-37.842-.818-45.933-6.152-12.828-19.177-19.334-32.974-16.472M403 155.302c-4.733 1.485-14.221 11.16-15.885 16.198-1.881 5.695-2.606 26.817-1.16 33.784 4.149 19.987 27.276 27.988 42.432 14.681 14.834-13.024 14-49.431-1.393-60.811-6.523-4.823-16.032-6.35-23.994-3.852m603.973 35.756C988.54 193.774 979 201.993 979 215.158c0 18.576 21.762 25.487 37.27 11.835 7.328-6.45 8.73-10.435 8.73-24.809V190l-6.25.122c-3.437.067-8.737.488-11.777.936m-470.21 1.975c-12.889 2.17-20.712 7.35-22.797 15.094-4.144 15.388 10.799 25.63 26.034 17.845 8.808-4.501 12-11.002 12-24.44V192l-5.25.118c-2.888.064-7.381.476-9.987.915M424.694 305.064c-6.898 1.043-16.763 6.048-20.405 10.353-14.127 16.698-6.992 42.253 13.457 48.197 6.247 1.817 22.64 1.496 29.504-.576l3.75-1.132V333h-22v7h14v8.031c0 9.589.123 9.493-12 9.413-9.784-.065-14.641-1.993-19.79-7.858-9.396-10.701-5.846-27.917 7.195-34.895 4.838-2.589 22.279-3.172 26.354-.881 2.289 1.287 4.241-1.127 4.241-5.245 0-2.778-14.893-4.923-24.306-3.501m122.065.359c-8.268 2.951-12.082 7.711-12.082 15.077 0 8.307 3.059 11.489 16.348 17.01 11.849 4.923 14.554 8.264 11.892 14.691-2.438 5.884-13.931 7.79-22.776 3.777-5.322-2.415-4.804-2.455-5.528.429-.333 1.324-.86 3.072-1.171 3.885-1.758 4.581 22.73 6.56 30.028 2.426 7.958-4.507 11.125-12.762 7.891-20.567-2.232-5.385-5.579-7.913-15.485-11.699-8.991-3.435-12.209-6.145-12.209-10.281 0-7.96 8.987-10.688 21.956-6.663 2.106.654 5.152-4.445 3.882-6.5-1.695-2.742-16.595-3.78-22.746-1.585m145.651-.289c-27.762 6.246-33.179 45.072-7.953 57.006 5.44 2.573 7.08 2.859 16.427 2.859 13.588.001 18.487-1.369 17.609-4.926-.951-3.856-1.882-4.336-6.123-3.159-5.629 1.563-15.31 1.326-20.689-.507-18.79-6.402-18.964-35.123-.261-42.938 4.544-1.899 17.562-2.199 21.993-.507 3.409 1.302 4.335.63 4.769-3.458.296-2.79.009-3.076-4.182-4.169-5.335-1.392-15.86-1.49-21.59-.201m313.829.135c-16.908 6.474-15.725 25.484 1.946 31.266 11.886 3.889 14.815 6.405 14.815 12.725 0 7.774-11.383 11.262-22.693 6.954l-5.193-1.979-1.057 3.032c-1.501 4.306-1.482 4.346 2.963 6.124 6.358 2.544 20.39 2.198 26.01-.641 6.001-3.032 8.97-7.664 8.97-13.997 0-9.67-4.402-14.318-17.865-18.865-18.62-6.288-11.882-22.436 7.257-17.392 3.241.854 5.987 1.429 6.102 1.278 2.263-2.967 2.104-6.637-.337-7.759-3.856-1.772-17.013-2.241-20.918-.746m-719.786.994c-.267.694-.365 14.082-.219 29.75l.266 28.487h37v-7l-14.25-.277-14.25-.278V337h26v-7h-26v-17h27v-8h-17.531c-13.198 0-17.652.312-18.016 1.263m49.021-.055c-.278.725-.386 14.137-.24 29.805l.266 28.487h8l.269-23.454.269-23.454 6.231 9.459c3.427 5.202 10.717 15.869 16.2 23.704L376.437 365H385v-60h-8V351.275l-7.926-11.888c-4.359-6.538-11.46-16.837-15.779-22.887l-7.853-11-4.731-.305c-3.224-.208-4.893.115-5.237 1.013M465 335.023v30.022l18.25-.272 18.25-.273.31-3.75.311-3.75H474v-52h-9v30.023m47 .034v30.058l4.25-.308 4.25-.307.265-29.75.265-29.75H512v30.057m73.235-.307.265 29.75h8l.278-13.75.278-13.75h30.888l.278 13.75.278 13.75 4.25.307 4.25.308v-60.23l-4.25.308-4.25.307-.282 11.75-.281 11.75H594v-24h-9.03l.265 29.75m145.218-28.487c-.267.694-.365 14.082-.219 29.75l.266 28.487h37v-7l-14.25-.277-14.25-.278V337h26v-7h-26v-17h27v-8h-17.531c-13.198 0-17.652.312-18.016 1.263m49.021-.055c-.278.725-.386 14.137-.24 29.805l.266 28.487h8l.5-23.457.5-23.458 4 6.511c2.2 3.582 9.376 14.25 15.946 23.708L820.393 365H829v-60h-8v46.15l-9.297-13.825c-20.038-29.797-21.709-31.784-27.032-32.13-3.191-.208-4.853.116-5.197 1.013M837 309v4h19.966l.267 25.75.267 25.75 4.25.307 4.25.308V313h20v-8h-49v4m58.735-3.308c-1.644.429-1.747 2.468-1.5 29.634l.265 29.174h8l.281-12.884.281-12.885 6.551.526c9.129.733 11.484 3.122 14.353 14.562 1.191 4.749 2.641 9.208 3.222 9.908 1.02 1.228 8.812 1.856 8.812.71 0-4.039-6.856-23.139-9.118-25.401l-2.754-2.754 2.996-2.215c10.103-7.47 9.032-21.196-2.094-26.817-4.304-2.174-23.097-3.174-29.295-1.558M947 334.977V365h37v-8h-28v-20h25v-7h-25v-16.942l13.25-.279 13.25-.279v-7l-17.75-.273-17.75-.273v30.023m-44-13.08V332h7.05c10.935 0 14.95-2.89 14.95-10.76 0-6.47-3.272-8.661-13.58-9.093l-8.42-.352v10.102" fill-rule="evenodd"/><path fill="#fbfaf9" stroke="#fbfaf9" d="M235.624 1.539c-1.135 2.955-.648 13.948.876 19.8.825 3.167 1.5 6.472 1.5 7.344 0 .871 3.126 4.876 6.947 8.898 10.81 11.38 14.165 21.857 10.007 31.255-1.075 2.43-1.954 5.232-1.954 6.227 0 .995-1.348 5.309-2.995 9.587-1.647 4.277-3.272 9.256-3.611 11.064-.339 1.807-.995 3.286-1.457 3.286-1.088 0-10.947-2.617-13.073-3.47-1.586-.636-8.655 8.012-7.497 9.171.563.562 4.9-1.645 5.733-2.918.331-.504 2.356.101 4.5 1.345 16.447 9.538 17.143 9.441 25.914-3.605 3.151-4.688 6.103-8.523 6.559-8.523.457 0 2.864 3.037 5.35 6.75 10.016 14.957 27.448 37.75 28.87 37.75 1.563 0 1.509-8.588-.073-11.712-.638-1.258-2.478-5.663-4.09-9.788-1.611-4.125-6.289-14.996-10.393-24.159l-7.464-16.658 3.262-6.106c3.597-6.731 9.847-14.689 22.84-29.077 7.796-8.633 9.896-12.396 7.986-14.305-.351-.352-2.264 1.113-4.25 3.255-6.337 6.834-25.945 18.447-28.885 17.107-2.011-.916-2.335-1.601-1.817-3.836 1.958-8.443 1.869-9.737-.893-13.02-3.019-3.588-5.468-4.047-7.733-1.451-1.744 1.998-4.493 7.861-4.965 10.589-.257 1.488-1.804.57-8.108-4.814-9.662-8.251-12.796-12.524-16.778-22.881-3.629-9.439-3.497-9.221-4.308-7.105M674.653 129.75c10.652 33.963 23.268 74.237 28.035 89.5l8.667 27.75h25.188l26.883-78.75c14.785-43.312 28.586-83.588 30.668-89.5L797.88 68h-24.482l-18.68 57.25c-17.546 53.777-26.611 83.309-28.238 92-1.114 5.946-1.751 4.688-5.823-11.5-3.103-12.331-33.296-114.573-39.276-133L679.839 68h-24.554l19.368 61.75M77.5 75.109C27.669 82.289-2.048 118.401.314 168.903c1.886 40.296 22.611 66.723 60.195 76.757 11.848 3.163 41.589 3.974 55.491 1.512 8.925-1.58 26.775-6.061 29.261-7.344 1.645-.85 1.743-3.727 1.5-44.119L146.5 152.5l-30.25-.265-30.25-.264V178h30v41.804l-3.25 1.206c-5.46 2.025-27.163 2.411-35.531.632-27.692-5.886-43.554-27.549-43.673-59.642-.117-31.848 14.777-52.292 43.454-59.647 12.779-3.277 36.522-1.936 50.341 2.845 3.212 1.111 6.198 1.634 6.635 1.161 1.414-1.528 7.123-23.66 6.311-24.46-5.452-5.371-43.834-9.522-62.787-6.79M175 164.5V247h29V82h-29v82.5m180.993-6.75c-.004 41.663-.294 78.787-.645 82.5l-.637 6.75h25.017l.636-4.64c.35-2.551.636-6.105.636-7.896v-3.257l6.75 6.738c21.257 21.219 59.063 13.235 73.543-15.532 10.435-20.729 10.008-50.393-.995-69.168-14.549-24.826-51.117-29.933-70.16-9.798L385 148.88V82h-29l-.007 75.75M605 164.5V247h29V82h-29v82.5m258 0V247h20V82h-20v82.5m54 0V247h21V82h-21v82.5M807 109v12h23V97h-23v12m-545 11.886c-7.317 2.366-13.127 5.429-17.722 9.346-2.078 1.772-2.921 2.219-1.873.994 3.444-4.025.433-2.328-6.196 3.492-12.694 11.145-21.486 29.638-21.526 45.282-.067 25.821 14.134 44.787 45.317 60.527l9.5 4.795 13.048.462c12.051.428 13.387.292 17.5-1.784 8.099-4.087 26.952-20.912 26.952-24.052 0-1.306-6.397 2.283-16.466 9.24-5.801 4.008-7.723 4.814-11.5 4.823-2.494.006-6.692.665-9.329 1.466-4.539 1.377-13.105 1.456-14.428.133-.336-.335-1.548-.622-2.694-.637-7.37-.096-21.274-8.816-25.811-16.188-2.891-4.699-3.275-4.965-6.434-4.452-11.679 1.895-15.474-43.997-5.154-62.326 5.03-8.932 11.67-16.892 15.886-19.043 2.162-1.103 3.93-2.447 3.93-2.988 0-.541 3.154-2.394 7.008-4.118 5.168-2.31 6.746-3.45 6.009-4.338-.55-.662-.704-1.5-.342-1.862.872-.872.71-.837-5.675 1.228m50.667 6.781c-1.223 1.222-.698 2.232 3.789 7.283 4.444 5.005 4.452 5.026 3 8.502-3.91 9.357-.331 15.986 8.703 16.117 7.722.111 9.777 4.801 2.591 5.913-6.925 1.072-10.65 2.537-12.247 4.817-1.751 2.5-1.981 10.327-.422 14.386.595 1.548 1.683 6.19 2.419 10.315 1.865 10.453 3.001 13.129 5.215 12.279 1.704-.654 1.705-.568.009 2.019-.973 1.486-1.362 2.702-.863 2.702 1.226 0 7.151-6.653 9.918-11.136 1.234-2 3.1-3.861 4.147-4.134 3.557-.931 5.304-6.29 5.213-15.992-.094-9.982-.917-15.738-2.25-15.738-.489 0-.889-1.295-.889-2.878 0-1.582-.655-3.421-1.456-4.085-.8-.665-3.09-4.517-5.088-8.56-3.95-7.995-9.49-14.477-12.371-14.477-1.015 0-2.99-1.77-4.466-4-2.611-3.946-3.645-4.641-4.952-3.333m205.993 4.323c-12.246 2.201-26.927 7.951-26.205 10.264.213.685 1.359 4.396 2.545 8.246 1.186 3.85 2.326 7.547 2.534 8.215.267.862 1.915.513 5.671-1.203C527.488 146.423 551 152.154 551 169.163v3.531l-10.75.623c-26.716 1.546-45.632 11.196-52.851 26.961-3.864 8.437-4.075 21.394-.481 29.482 9.863 22.197 43.147 27.048 62.592 9.124l4.311-3.974.59 3.045 1.168 6.045.58 3 12.67.001H581.5l-.27-32.25c-.457-54.558-2.798-64.882-17.063-75.241-9.539-6.928-29.996-10.308-45.507-7.52m467.84 1.435c-7.14 1.642-16.364 5.024-19.038 6.979-1.884 1.378-1.878 1.528.338 8.406l2.255 7.003 5.723-2.841C1001.09 140.406 1025 149.308 1025 171.3v3.414l-10.25.698c-37.535 2.554-56.77 16.75-56.74 41.876.037 31.465 39.145 44.355 64.01 21.097 5.148-4.816 5.929-4.451 5.966 2.783.029 5.593.469 5.832 10.728 5.832 8.671 0 9.434-.153 8.739-1.75-.418-.963-1.068-19.75-1.444-41.75-.823-48.206-1.615-51.822-13.676-62.438-9.076-7.989-29.506-11.393-45.833-7.637m116.254-.394c-32.835 8.206-49.605 53.611-32.491 87.967 13.953 28.01 51.391 34.897 72.449 13.329l5.288-5.416-.008 7.294c-.021 20.73-5.68 32.97-18.207 39.381-11.601 5.936-32.185 4.716-47.132-2.793-4.626-2.324-4.093-2.791-7.181 6.291-2.922 8.59-3.007 8.432 6.468 12.02 31.188 11.808 67.976 2.261 79.055-20.515 6.627-13.625 6.72-14.785 7.345-92.339l.356-44.25h-17.434l-.62 3.75c-.341 2.063-.625 5.688-.631 8.057l-.011 4.307-5.468-5.906c-7.958-8.596-14.911-11.539-28.032-11.865-5.5-.136-11.686.173-13.746.688m123.831.037c-44.185 10.938-54.946 83.06-16.135 108.145 12.861 8.312 34.607 10.887 54.05 6.4 7.864-1.814 15.5-4.409 15.5-5.266 0-.737-3.282-13.827-3.553-14.167-.139-.176-3.335.659-7.1 1.857-10.59 3.366-28.92 3.895-38.122 1.1-13.871-4.213-24.159-18.188-24.213-32.887L1207 195h79l-.015-10.25c-.034-23.997-10.716-43.213-27.7-49.836-6.528-2.545-24.62-3.599-31.7-1.846m-956.931 2.472c.588 1.532.22 1.659-3.036 1.048-5.393-1.012-7.175-.062-9.611 5.121-1.311 2.789-2.461 4.174-2.89 3.481-.457-.74-3.005 1.162-7.115 5.308-7.065 7.128-7.514 8.732-5.285 18.878 1.212 5.512 2.604 6.833 5.89 5.583 2.035-.774 2.306-.537 2.583 2.261.171 1.72.873 3.311 1.561 3.537.793.26 1.028-.17.643-1.173-.439-1.145-.007-1.584 1.558-1.584 1.191 0 1.888.45 1.548 1-.972 1.572.655 1.169 2.681-.664 1.512-1.368 2.237-1.451 4.079-.466 1.232.659 5.597 1.354 9.7 1.545 9.612.448 10.476 2.265 2.772 5.827-5.064 2.342-6.676 5.889-4.417 9.715.927 1.568 1.685 3.515 1.685 4.327 0 1.745 7.51 8.117 10.788 9.152 4.199 1.326 7.536 8.037 5.732 11.526-3.189 6.167-1.384 10.489 3.143 7.523 10.527-6.898 15.66-17.046 16.714-33.046.583-8.849-.795-12.701-5.692-15.91-3.295-2.159-9.783-2.321-11.072-.277-1.123 1.779-6.854-.428-9.552-3.679-.771-.928-2.871-1.573-5.124-1.573-6.205 0-5.853-3.778.758-8.137 4.52-2.981 6.881-2.425 8.973 2.111 3.164 6.863 5.423 4.19 6.803-8.049 1.605-14.229-2.419-22.596-11.362-23.619-2.535-.29-6.525-.748-8.866-1.018-3.74-.431-4.177-.278-3.589 1.252M808 190.5V247h21V134h-21v56.5m419.572-41.482c-9.858 3.849-20.388 19.332-20.56 30.232-.007.412 13.325.75 29.627.75h29.639l-.554-6.106c-1.85-20.405-19.736-32.067-38.152-24.876m-118.072.381c-15.931 5.038-24.515 19.246-24.488 40.533.031 25.337 11.988 40.5 31.958 40.528 12.495.018 21.384-5.478 26.983-16.682l3.047-6.097v-18.403c0-17.649-.104-18.622-2.55-23.792-6.342-13.407-21.445-20.358-34.95-16.087m-709.618 7.394C388.802 162.581 385 171.32 385 191c0 16.426 1.455 21.55 7.969 28.064 11.572 11.572 31.232 9.719 39.806-3.752 9.484-14.902 8.363-40.566-2.324-53.205-6.916-8.178-20.549-10.548-30.569-5.314m605.881 34.24c-18.138 3.054-26.781 10.867-26.747 24.177.062 23.702 32.769 25.75 44.561 2.79 1.346-2.62 1.907-6.579 2.231-15.75l.433-12.25-7.87.118c-4.329.064-10.002.476-12.608.915m-472.374 2.455c-12.589 2.739-18.976 8.231-20.043 17.236-2.097 17.707 18.937 24.839 32.691 11.085 4.882-4.882 5.963-8.466 5.963-19.777V192l-6.25.079c-3.437.044-9 .678-12.361 1.409M546.9 305.556c-7.788 2.399-11.9 7.803-11.9 15.641 0 7.766 5.72 13.037 18.72 17.252 15.18 4.921 12.766 19.949-3.171 19.746-2.777-.035-7.018-.769-9.425-1.63-5.743-2.054-5.759-2.051-6.975 1.436-1.545 4.434 2.498 6.275 14.851 6.76 15.369.604 23-4.884 23-16.541 0-9.311-4.886-14.183-18.72-18.669-18.578-6.023-9.448-22.753 9.311-17.062 2.7.819 4.977 1.494 5.061 1.5 1.11.079 2.133-6.505 1.11-7.14-4.448-2.763-15.052-3.39-21.862-1.293m145.33-.072c-15.459 4.356-23.546 14.652-23.576 30.016-.026 13.545 6.189 23.042 17.981 27.476 6.58 2.474 25.746 2.633 30.031.249 3.16-1.759 1.762-6.868-1.755-6.414-22.482 2.901-32.634-1.17-36.555-14.658-6.114-21.031 14.862-37.389 36.775-28.679 1.342.534 3.869-3.401 3.869-6.025 0-2.527-19.655-3.97-26.77-1.965m316.11-.588c-12.154 3.132-17.712 15.155-11.221 24.271 2.207 3.1 6.534 5.609 15.384 8.92 7.914 2.961 10.657 5.583 10.791 10.316.252 8.868-12.123 12.791-23.976 7.601l-4.182-1.832-1.085 3.112c-1.846 5.294 3.266 7.716 16.282 7.716 13.59 0 20.593-5.057 21.458-15.495.779-9.391-3.432-14.07-17.533-19.481-8.471-3.251-11.258-5.68-11.258-9.812 0-7.695 9.021-11.218 19.56-7.64 5.298 1.799 5.209 1.833 6.05-2.374.561-2.801.313-3.277-2.207-4.235-3.835-1.458-14.173-2.069-18.063-1.067M287 334.5V364h36v-6h-28v-21h26v-7h-26v-18h27v-7h-35v29.5m49 0V364h8.229l-.384-24c-.211-13.2-.314-24-.228-24 .085 0 1.977 3.038 4.204 6.75 2.227 3.712 9.406 14.4 15.953 23.75l11.904 17 4.661.305 4.661.305V305h-7.963l-.269 23.106-.268 23.106-4.359-6.856c-2.398-3.771-9.514-14.168-15.814-23.106L344.873 305H336v29.5m82.3-27.638c-16.758 5.791-24.782 21.049-19.833 37.714 4.844 16.314 22.811 23.9 44.942 18.976l7.591-1.688V333h-21v7h13v8.025c0 9.433-.622 9.975-11.439 9.975-15.324 0-25.517-9.187-25.517-23 0-17.08 16.461-26.93 36.551-21.872 5.136 1.293 4.956 1.378 5.839-2.747.646-3.021.527-3.153-3.826-4.25-6.874-1.73-20.26-1.359-26.308.731m46.7 27.581V364H502.127l-.314-3.25-.313-3.25-13.733-.278-13.733-.278-.267-25.722-.267-25.722-4.25-.307-4.25-.308v29.558m47 0V364h9.03l-.265-29.25-.265-29.25-4.25-.307-4.25-.308v29.558m73.714-28.824c-.393.393-.714 13.689-.714 29.548V364h9v-27h32v27h8v-59h-7.938l-.281 12.25-.281 12.25-15.719.275-15.719.275-.281-12.275-.281-12.275-3.536-.298c-1.944-.163-3.857.024-4.25.417M731 334.5V364h36v-6h-28v-21h26v-7h-26v-18h27v-7h-35v29.5m49 0V364h8.208l-.354-24c-.195-13.2-.284-24-.199-24 .085 0 1.386 2.137 2.891 4.75 1.504 2.613 8.769 13.413 16.144 24L820.099 364H829v-59H820.899l.3 23.971.301 23.97-3-5.085c-1.65-2.796-8.993-13.583-16.318-23.97L788.864 305H780v29.5m57-26v3.5h20v52h9v-52h20v-7h-49v3.5m59.25-2.794-2.25.433V364h9v-25l5.25.002c10.526.003 12.541 2.255 17.222 19.248l1.584 5.75H935.781l-1.32-4.75c-.725-2.613-2.038-7.335-2.917-10.496-.932-3.351-2.94-7.275-4.821-9.416-2.515-2.865-2.893-3.78-1.723-4.165 3.083-1.016 7.855-6.885 8.532-10.494 1.62-8.636-2.839-15.956-11.256-18.478-3.757-1.126-21.045-1.455-26.026-.495M947 334.5V364h37v-6h-28v-21h25v-7h-25v-18h26v-7h-35v29.5m-41.75-22.794c-2.162.416-2.25.842-2.25 10.864V333l4.75-.024c11.539-.058 17.42-3.688 17.608-10.869.209-7.949-8.759-12.587-20.108-10.401" fill-rule="evenodd"/><path fill="#eeeae5" stroke="#eeeae5" d="M235.65 3.001c-1.007 5.034-.801 8.762 1.021 18.499l1.684 9 7.76 8.162c8.069 8.486 9.033 10.434 10.385 20.984.487 3.807.24 5.957-.953 8.264-.887 1.714-2.014 5.024-2.504 7.354-.491 2.33-2.304 8.286-4.03 13.236-1.727 4.95-3.316 9.549-3.533 10.221-.307.948-1.245.92-4.201-.122-9.218-3.253-11.792-3.09-14.142.893-2.918 4.946-1.943 6.453 1.915 2.961 1.642-1.486 7.406.65 12.487 4.628.572.448 3.014 1.258 5.427 1.8 5.625 1.264 6.625.557 13.343-9.42 2.896-4.3 5.788-7.993 6.426-8.206.639-.213 3.276 2.793 5.86 6.679 2.584 3.886 5.082 7.066 5.552 7.066.469 0 .853.471.853 1.046 0 1.257 20.815 29.311 22.101 29.787 4.957 1.838-4.875-26.914-19.016-55.606-2.915-5.913-3.011-6.468-1.678-9.659 2.621-6.272 8.316-13.995 20.986-28.46 11.432-13.05 13.767-16.614 12.027-18.355-.32-.319-2.072 1.068-3.894 3.083-3.479 3.847-25.373 18.187-27.683 18.132-3.904-.092-5.059-2.565-3.434-7.352 1.645-4.846 1.399-6.48-1.64-10.866-3.598-5.193-8.238-2.288-10.766 6.739-1.554 5.549-1.22 5.641-10.887-3-9.153-8.182-12.183-12.541-16.008-23.034-2.696-7.394-2.835-7.572-3.458-4.454m420.651 67.042c.294 1.123 12.834 41.402 27.867 89.509l27.332 87.467 12.486-.26 12.487-.259 29.777-87c16.378-47.85 30.049-88.027 30.381-89.283l.602-2.282-11.833.282-11.833.283-14.803 45c-18.094 55.004-27.73 85.879-30.818 98.75-1.287 5.363-2.589 9.75-2.895 9.75-.305 0-2.459-7.538-4.787-16.75-3.468-13.725-19.958-69.617-37.322-126.5L679.661 68h-11.947c-11.538 0-11.929.07-11.413 2.043M80 75.046C30.757 81.149.592 114.549.566 163c-.038 69.355 55.217 101.003 137.684 78.862l7.75-2.081V153H86v24h30v43.05l-2.75 1.137c-4.82 1.994-29.924 2.265-37.311.403-28.39-7.157-44.115-30.575-42.697-63.59 1.243-28.961 16.363-48.821 42.258-55.506 14.099-3.639 35.148-2.804 50.257 1.994 8.973 2.849 8.145 3.538 11.714-9.744 1.475-5.488 2.898-10.541 3.162-11.23 1.976-5.149-40.051-11.019-60.633-8.468m96 89.454V247h28V82h-28v82.5m180-3.125c0 43.656-.281 80.781-.625 82.5L354.75 247H380l.009-3.25c.004-1.787.29-5.596.635-8.464l.626-5.213 2.716 3.749c14.869 20.525 48.326 21.093 67.959 1.154 21.877-22.22 22.594-67.833 1.416-90.037-17.034-17.858-47.496-18.331-63.716-.991L385 148.914V82h-29v79.375m250 3.125V247h28V82h-28v82.5m257 0V247h20V82h-20v82.5m54 0V247h21V82h-21v82.5m-110-55V121h23V98h-23v11.5m-548.585 12.866c-5.919 2.201-10.304 4.776-15.408 9.048l-2.493 2.086 1.898-2.25c4.121-4.886-.437-1.856-7.523 5C222.702 148.042 215 164.911 215 179.813c0 26.166 14.323 45.26 45.595 60.781 12.376 6.142 30.486 7.561 39.59 3.1 7.411-3.63 28.227-22.615 26.591-24.252-.27-.269-5.524 2.896-11.675 7.034-9.349 6.289-11.85 7.524-15.239 7.524-2.23 0-6.509.714-9.51 1.586-14.609 4.247-41.067-6.661-44.817-18.475-.699-2.202-1.149-2.393-5.966-2.529-6.424-.18-11.035-17.515-10.415-39.157.341-11.895.41-12.208 4.554-20.502 4.878-9.763 12.005-19.183 16.592-21.929 1.76-1.053 4.175-2.765 5.367-3.804 1.191-1.04 4.664-2.904 7.718-4.143 4.752-1.929 5.35-2.455 4.155-3.65-1.758-1.758-1.802-1.753-9.125.969m55.252 5.301c-1.506 1.505-.448 3.98 3.359 7.86l4.027 4.102-1.527 3.654c-1.951 4.67-1.947 9.671.011 12.466 1.654 2.361 8.706 4.756 11.195 3.801 1.961-.753 4.268 1.168 4.268 3.553 0 1.878-.717 2.17-8.4 3.413-8.35 1.351-11.601 8.561-8.203 18.193.769 2.178 1.906 7.237 2.527 11.242 1.27 8.183 2.466 11.049 4.611 11.049 1.924 0 1.849.894-.285 3.387-1.729 2.02-1.72 2.026.75.48 1.375-.861 4.446-4.333 6.824-7.716s4.922-6.151 5.651-6.151c2.712 0 5.602-6.919 5.586-13.372-.026-10.55-.829-16.984-2.257-18.076-.757-.578-1.204-1.895-.993-2.925.211-1.03-.483-3.055-1.542-4.5-1.059-1.445-3.636-5.894-5.726-9.887-3.706-7.078-9.265-13.24-11.945-13.24-.733 0-2.523-1.8-3.979-4-2.826-4.27-2.929-4.357-3.952-3.333m209.833 3.939c-13.623 2.008-30.5 7.783-30.5 10.437 0 .642 1.161 4.974 2.58 9.625 2.516 8.251 2.632 8.423 4.75 7.049 7.712-5.004 25.515-8.453 34.671-6.717 9.961 1.889 14.879 6.887 16.483 16.75l.692 4.25h-4.864c-38.299 0-62.389 16.351-62.614 42.5-.273 31.679 39.091 45.923 64.675 23.403 5.036-4.433 5.075-4.411 6.114 3.347l.636 4.75h26.094l-.748-2.75c-.411-1.512-1.072-20.075-1.468-41.25-.49-26.175-1.122-39.78-1.974-42.5-5.933-18.935-19.157-28.046-42.027-28.957-5.225-.209-10.85-.18-12.5.063m468 1.109c-7.97 1.102-22.283 6.094-25.353 8.841-.903.809 4.166 13.531 5.207 13.068 30.876-13.756 51.614-8.347 53.402 13.928l.493 6.142-4.764.653c-2.62.359-6.839.659-9.375.666-14.565.042-34.598 7.369-42.889 15.686-12.584 12.626-13.87 34.005-2.822 46.912 12.773 14.923 40.985 14.627 56.777-.594 5.415-5.219 5.076-5.446 6.331 4.233l.616 4.75h8.688l8.689.001-.266-35.751c-.146-19.662-.762-39.508-1.368-44.101-3.462-26.249-22.716-38.673-53.366-34.434m110.605.804c-32.902 9.234-48.506 52.473-31.503 87.296 14.618 29.939 58.303 35.244 75.631 9.185 1.612-2.425 1.664-2.226 1.715 6.614.156 27.259-10.327 41.033-32.688 42.949-8.899.763-21.511-1.556-29.954-5.507-3.633-1.7-6.699-2.97-6.813-2.823-.115.147-1.353 3.713-2.752 7.925l-2.542 7.658 5.717 2.566c10.279 4.613 17.541 5.999 31.584 6.028 25.101.053 41.185-7.766 49.835-24.228 7.237-13.772 7.201-13.301 7.917-103.432l.26-32.75h-17.254l-.702 8.049-.702 8.049-2.812-3.881c-9.026-12.46-28.355-18.352-44.937-13.698m126.003-.437c-23.38 4.591-39.582 26.789-40.815 55.918-1.73 40.88 23.556 64.271 64.891 60.029 9.465-.971 23.72-4.115 26.528-5.851 1.737-1.074-1.863-14.763-3.8-14.45-.776.126-4.787 1.164-8.912 2.308-9.847 2.731-26.191 3.071-34.02.708-14.425-4.354-24.98-18.262-24.98-32.914v-3.807l39.25-.261 39.25-.262.287-8.635c1.222-36.733-23.625-59.471-57.679-52.783m-958.348 2.855c-1.845 2.188-3.76 2.729-3.76 1.063 0-1.67-4.587-1.117-6.224.75-.844.963-2.283 3.227-3.198 5.033-.915 1.805-2.137 2.99-2.716 2.632-1.267-.784-10.412 7.93-12.511 11.921-1.242 2.361-1.293 3.702-.309 8 2.082 9.089 2.647 9.976 5.93 9.32 2.673-.535 2.932-.329 3.217 2.554.171 1.725.874 3.321 1.562 3.547.799.262 1.028-.171.633-1.198-.493-1.285-.009-1.562 2.4-1.379 1.659.127 3.785-.408 4.725-1.187 1.484-1.232 1.862-1.206 2.892.202.651.891 2.29 1.66 3.641 1.71 12.568.463 13.433.611 13.771 2.364.235 1.218-.694 2.202-2.986 3.163-1.83.766-4.411 2.55-5.736 3.965l-2.409 2.571 1.909 4.246c1.05 2.335 1.816 4.533 1.703 4.884-.301.932 7.178 6.751 10.112 7.866 1.382.526 3.721 2.781 5.197 5.013 2.67 4.034 2.676 4.079.944 7.918-4.009 8.891-.432 10.044 7.549 2.435 8.308-7.921 13.075-18.675 11.577-26.119-.3-1.491-.075-4.325.5-6.299 2.501-8.575-9.96-18.035-16.253-12.339-2.011 1.819-5.824.401-9.327-3.471-1.378-1.522-3.102-2.102-6.248-2.102-5.521 0-5.747-1.941-.774-6.632 5.505-5.192 9.636-4.348 12.504 2.555.95 2.285 1.105 2.326 2.716.716 2.947-2.946 2.505-27.168-.541-29.636-1.238-1.003-2.25-2.314-2.25-2.913 0-.6-1.012-1.168-2.25-1.264-5.353-.414-8.441-.785-11.25-1.349-2.287-.46-3.413-.114-4.74 1.46M808 191v56h21V135h-21v56m418.48-41.643c-9.143 4.258-16.787 15.103-19.015 26.975l-.688 3.668h59.497l-.507-6.311c-1.679-20.924-20.961-32.866-39.287-24.332m-118.903.234c-23.235 7.413-31.383 50.443-13.417 70.853 15.231 17.304 43.958 12.023 51.43-9.454 3.016-8.67 2.809-37.543-.319-44.32-7.033-15.239-22.086-22.06-37.694-17.079m-700.824 4.539c-8.906 1.32-17.559 9.112-20.276 18.258-2.597 8.747-2.036 32.891.91 39.112 7.514 15.866 27.481 20.476 40.874 9.437 8.173-6.737 13.037-23.842 10.889-38.288-3.031-20.378-15.178-31.07-32.397-28.519m595.649 37.356c-18.269 3.974-27.172 15.473-23.026 29.736 3.695 12.71 17.515 16.85 32.32 9.683 10.125-4.901 14.304-13.69 14.304-30.083V190l-8.75.079c-4.812.044-11.494.677-14.848 1.407m-471.639 2.387c-12.198 3.181-18.161 10.129-17.503 20.39.844 13.169 13.398 18.781 26.811 11.987 9.292-4.707 11.929-9.871 11.929-23.363V192l-7.25.058c-3.987.031-10.282.848-13.987 1.815m-112.41 113.188c-24.422 7.741-28.732 40.67-6.991 53.411 8.364 4.902 26.221 5.688 36.888 1.625l2.75-1.047V333h-21v7h13v8.383c0 9.809.288 9.581-12.136 9.603-9.592.017-16.714-3.274-21.347-9.866-4.527-6.44-4.516-19.815.022-26.271 6.146-8.745 23.048-13.198 33.874-8.924 3.296 1.301 4.406.623 4.808-2.936.551-4.874-17.994-6.692-29.868-2.928m125.177.221c-10.376 5.876-11.497 18.183-2.281 25.03 1.788 1.328 6.61 3.678 10.716 5.221 9.152 3.44 12.035 6.075 12.035 10.998 0 8.589-9.805 12.456-21.687 8.555-7.429-2.438-7.078-2.513-7.915 1.676-.614 3.068-.534 3.143 5.102 4.781 7.168 2.084 18.444 1.629 23.77-.958 6.068-2.948 8.23-6.875 8.23-14.949 0-6.832-.02-6.883-4.309-10.688-2.559-2.271-6.823-4.663-10.5-5.889-8.296-2.767-12.506-5.472-13.273-8.528-2.261-9.01 8.205-14.249 20.044-10.032 2.179.776 4.024 1.319 4.101 1.206.077-.113.629-1.654 1.226-3.425 1.067-3.162 1.02-3.239-2.601-4.245-6.828-1.896-18.216-1.269-22.658 1.247M691 305.935c-26.627 8.129-30.571 44.453-6.101 56.192 9.283 4.454 33.12 3.411 33.086-1.448-.028-3.909-1.294-4.901-4.568-3.578-1.604.648-6.517 1.194-10.917 1.213-15.788.07-25.436-8.762-25.468-23.314-.039-17.265 16.874-28.146 35.183-22.636l4.533 1.364 1.026-3.344c1.008-3.285.961-3.363-2.624-4.359-4.192-1.164-20.433-1.225-24.15-.09m207.25-.272-3.25.464V364h7v-25h5.935c10.946 0 13.236 2.224 17.015 16.527l2.238 8.473h8.486l-3.035-10.638c-2.309-8.094-3.793-11.443-6.205-14l-3.17-3.362 3.264-2.018c9.931-6.137 9.541-20.825-.694-26.082-4.375-2.247-19.12-3.443-27.584-2.237m105.024 1.43C997.8 309.803 995 314.339 995 320.5c0 8.709 4.074 12.513 19.222 17.949 5.197 1.865 9.78 6.497 9.774 9.878-.015 9.153-12.283 13.212-24.502 8.106-4.407-1.841-4.127-1.924-5.345 1.568-1.465 4.205 2.525 6.197 13.625 6.802 16.41.894 26.209-7.42 23.811-20.202-1.225-6.529-5.482-9.971-18.226-14.74-18.765-7.02-9.542-24.144 9.452-17.55 4.351 1.511 6.189.24 6.189-4.278 0-3.464-19.209-4.165-25.726-.94M287 335v29h36v-6h-28v-21h25v-7h-25v-18h27v-6h-35v29m49 0v29h7v-49.408l4.595 7.454c2.527 4.1 10.014 15.216 16.637 24.704L376.275 364H385v-58H376.813l.343 23.501c.189 12.925.274 23.5.189 23.5-.085-.001-1.39-2.138-2.9-4.751-1.51-2.613-8.64-13.179-15.845-23.48l-13.1-18.731-4.75-.019L336 306v29m129 0v29h36v-5.944l-13.75-.278-13.75-.278-.267-25.75-.267-25.75H465v29m47 0v29h8v-58h-8v29m74 0v29h7v-27h33v27h8v-58h-8v24.05l-16.25-.275-16.25-.275-.282-11.75-.281-11.75H586v29m145 0v29h36v-6h-28v-21h25v-7h-25v-18h27v-6h-35v29m49 0v29h7v-49.408l4.595 7.454c2.527 4.1 10.014 15.216 16.637 24.704L820.275 364H829v-58h-8.211l.356 23.5c.195 12.925.285 23.5.2 23.5-.085 0-1.39-2.137-2.9-4.75s-8.64-13.179-15.845-23.48l-13.1-18.731-4.75-.019L780 306v29m57-26.035v2.965l10.25.285 10.25.285.267 25.75.267 25.75H866v-52h20v-6h-49v2.965M947 335v29h37v-5.945l-14.25-.278-14.25-.277-.285-10.25-.285-10.25H981.127l-.314-3.25-.313-3.25-12.788-.28-12.789-.28.289-8.72.288-8.72 13.25-.279 13.25-.279V306h-35v29m-43.788-23.152c-.943.598-1.211 3.474-1 10.735l.288 9.917 5.5.322c13.25.775 21.179-6.775 16.538-15.748-2.454-4.746-16.614-8.216-21.326-5.226" fill-rule="evenodd"/><path fill="#f4a434" stroke="#f4a434" d="M236.074 9.091c-.042 5.517.515 11.548 1.312 14.197.763 2.534 1.158 4.835.878 5.114-.279.28 2.927 4.241 7.126 8.803 7.816 8.493 9.601 11.887 11.324 21.535.754 4.226.602 6.065-.788 9.5-.948 2.343-3.655 10.335-6.017 17.76a4013.531 4013.531 0 0 1-4.365 13.681c-.04.1-3.207-.688-7.037-1.75-9.015-2.5-8.653-2.567-11.174 2.077-2.251 4.148-1.5 5.378 1.292 2.117 1.551-1.812 1.865-1.728 9.384 2.5 12.599 7.086 14.112 6.61 23.485-7.375 2.673-3.988 5.164-7.25 5.536-7.25.372 0 2.88 3.217 5.573 7.149 6.657 9.718 6.507 9.512 18.392 25.351l10.505 14 .309-4.865c.182-2.848-.304-6.164-1.172-8-.814-1.724-2.447-5.61-3.627-8.635-1.181-3.025-5.752-13.654-10.159-23.619l-8.012-18.119 2.997-5.936c3.277-6.494 8.313-13.064 20.557-26.826 4.404-4.95 8.86-9.974 9.902-11.165 1.214-1.388 1.662-2.894 1.249-4.197-.593-1.868-.924-1.723-4.1 1.792-1.9 2.104-8.84 7.285-15.422 11.515l-11.967 7.69-2.531-1.818c-1.783-1.279-2.361-2.409-1.954-3.817 1.914-6.622 1.584-10.986-1.04-13.75-1.436-1.513-2.847-2.75-3.136-2.75-2.905 0-6.37 5.43-7.856 12.31l-.606 2.81-3.111-2.617c-15.731-13.237-18.72-17.113-23.301-30.22L236.149-.5l-.075 9.591M656 68.312c0 .171 12.538 40.334 27.862 89.25l27.862 88.938H736.213l29.747-87c16.361-47.85 30.073-88.027 30.471-89.282l.724-2.283-11.688.283-11.689.282-15.911 48.5c-17.204 52.445-27.596 85.989-30.437 98.25-.988 4.262-2.051 7.75-2.363 7.75-.312 0-2.472-7.538-4.8-16.75-2.329-9.213-12.45-44.087-22.491-77.5L679.518 68h-11.759c-6.467 0-11.759.14-11.759.312m-571.513 6.67C32.33 79.612.782 112.933.678 163.5c-.075 36.377 15.718 63.376 44.777 76.552 23.393 10.607 61.545 11.086 94.081 1.182l5.964-1.816.261-43.209.26-43.209H86v24h30v21.465c0 25.185 1.269 22.944-13.967 24.677-40.253 4.577-67.25-18.101-68.78-57.775-1.109-28.769 8.716-47.848 30.06-58.368 17.236-8.496 45.518-9.375 64.882-2.017 2.852 1.084 5.294 1.862 5.426 1.73.132-.132 1.793-5.745 3.691-12.473l3.451-12.232-6.621-2.045c-13.728-4.24-34.508-6.324-49.655-4.98M176 164.5V247h28V82h-28v82.5m180 0V247h24l.1-6.25c.173-10.884.829-11.769 4.714-6.359 11.632 16.197 39.118 19.734 58.318 7.503 34.576-22.026 33.65-88.248-1.474-105.364-18.765-9.143-41.751-5.2-53.494 9.178l-3.097 3.792-.033-33.75L385 82h-29v82.5m250 0V247h28V82h-28v82.5m257 0V247h20V82h-20v82.5m55 0V247h19V82h-19v82.5m-111-55V121h23V98h-23v11.5m-546.591 12.453c-7.424 2.625-12.584 5.519-15.909 8.921-3.052 3.123-5.788 4.382-3.48 1.602 3.635-4.38-.624-1.648-6.627 4.251C223.347 147.58 215 166.184 215 179.946c0 25.166 14.653 44.747 45 60.134 8.328 4.223 8.764 4.325 21.5 5.02 17.051.931 20.68-.604 35.722-15.107 12.223-11.784 11.679-12.406-2.55-2.923-9.205 6.136-11.307 7.12-15.89 7.442-2.905.204-6.854.848-8.775 1.43-8.19 2.481-22.505-.459-33.702-6.921-5.093-2.94-6.065-3.946-10.643-11.021-1.861-2.876-2.875-3.5-5.683-3.5-2.955 0-3.717-.543-5.62-4-5.676-10.317-7.567-37.493-3.461-49.743C234.122 151.14 246.557 133 249.926 133c.572 0 2.285-1.14 3.807-2.533 1.522-1.393 5.326-3.756 8.453-5.25 7.431-3.55 6.075-6.04-1.777-3.264M313 129.522c0 .838 1.829 3.507 4.065 5.933l4.065 4.41-1.726 4.859c-3.118 8.781-.447 13.364 8.196 14.065 6.201.503 7.36 1.281 7.385 4.961.012 1.874-.528 2.251-3.235 2.256-13.519.023-16.598 5.481-12.408 21.994.907 3.575 2.214 9.184 2.904 12.464 1.063 5.055 1.633 6.051 3.744 6.542 1.679.391 2.086.829 1.25 1.346-.682.421-1.24 1.245-1.24 1.829 0 1.874 2.688-1.038 6.683-7.239 2.128-3.303 4.552-5.928 5.478-5.933.981-.005 2.447-1.748 3.583-4.259 2.77-6.122 2.256-27.75-.659-27.75-.429 0-.822-1.453-.872-3.23-.051-1.776-.584-3.394-1.185-3.594-.602-.201-2.37-3.135-3.93-6.52-3.933-8.533-8.608-14.553-12.595-16.219-1.856-.776-4.175-2.766-5.154-4.423-1.887-3.195-4.349-4.039-4.349-1.492m211 2.491c-11.557 1.161-31 7.143-31 9.537 0 2.993 5.381 17.505 6.333 17.082 29.564-13.139 52.296-8.166 52.623 11.512.044 2.623-.03 2.649-9.206 3.329-37.815 2.801-56.623 16.03-57.585 40.502-.437 11.113 2.107 18.399 8.728 24.998 7.884 7.856 12.549 9.527 26.607 9.527 13.958 0 21.751-2.751 29.365-10.365 4.644-4.644 4.688-4.62 5.65 3.115l.715 5.75h12.992c11.999 0 12.933-.134 12.224-1.75-.423-.963-1.076-19.3-1.45-40.75-.577-33.001-.95-39.846-2.424-44.5-6.75-21.304-25.03-30.853-53.572-27.987m466.756 1.072c-6.47.948-18.628 4.946-22.244 7.315l-2.392 1.567 2.083 6.267c1.146 3.446 2.148 6.358 2.229 6.471.08.113 2.454-.899 5.275-2.25 8.437-4.037 16.78-5.735 25.762-5.242 13.569.746 20.003 5.661 23.068 17.624 2.743 10.709 2.896 10.551-11.037 11.358-27.2 1.574-45.208 10.442-52.403 25.805-3.793 8.098-3.733 22.213.127 29.608 10.77 20.637 41.623 23.945 60.125 6.446 2.939-2.78 5.58-5.054 5.868-5.054.289 0 .835 3.15 1.214 7l.69 7h17.522l-.314-16.25c-.173-8.937-.499-27.05-.725-40.25-.311-18.176-.811-25.456-2.059-30-6.04-21.98-24.488-31.56-52.789-27.415m114.244.006c-39.249 7.609-55.251 67.682-26.345 98.903 17.292 18.677 47.927 19.279 64.392 1.265l5.203-5.694-.47 12.968c-.55 15.154-2.522 21.62-8.755 28.701-10.662 12.113-33.899 14.143-54.645 4.773l-6.12-2.764-1.746 6.129c-.961 3.37-1.964 6.884-2.229 7.808-.981 3.421 12.954 8.245 28.434 9.843 23.88 2.463 44.885-5.114 54.952-19.825 9.182-13.418 10.287-22.747 10.595-89.448l.234-50.751-8.75.001H1151l-.015 6.75c-.021 8.944-1.052 10.496-3.907 5.877-7.156-11.58-25.19-17.809-42.078-14.536m123.059.465c-47.641 10.33-56.624 88.949-12.559 109.919 14.872 7.077 36.982 7.635 57.043 1.439l6.688-2.066-.607-3.674c-.333-2.021-1.074-5.333-1.645-7.36l-1.038-3.686-5.348 1.84c-26.738 9.199-51.639 2.43-60.141-16.348-2.685-5.932-4.986-17.486-3.732-18.74.471-.471 18.389-.974 39.818-1.118l38.962-.262-.098-10.5c-.335-35.809-24.426-56.582-57.343-49.444m-955.309 1.136c-.962.25-1.75.841-1.75 1.314 0 1.55-3.832 2.116-5.839.862-2.757-1.721-6.62.964-8.179 5.685-.916 2.776-1.628 3.511-3.04 3.142-1.292-.338-3.378 1.164-6.955 5.008-6.081 6.534-7.159 8.954-5.988 13.447a894.93 894.93 0 0 1 1.751 6.85c.825 3.294 1.099 3.486 4.676 3.267 3.556-.218 3.77-.073 3.324 2.259-.377 1.973-.202 2.264.839 1.4.723-.6 2.22-.804 3.325-.453 1.106.351 2.956.132 4.112-.487 1.32-.706 2.543-.778 3.288-.194 1.676 1.315 8.426 2.461 13.436 2.281 6.074-.219 6.091 3.504.03 6.427-6.16 2.97-7.229 5.192-4.736 9.843 1.107 2.066 1.796 4.107 1.531 4.536-.646 1.045 8.714 8.121 10.742 8.121.879 0 2.77 1.999 4.202 4.443l2.604 4.442-1.787 5.032c-2.431 6.845-1.063 8.117 4.442 4.129 9.499-6.881 16.621-21.401 14.727-30.023-.323-1.472-.158-3.805.367-5.186 2.836-7.458-11.908-18.955-15.676-12.223-1.156 2.067-3.831 1.252-8.767-2.671-2.397-1.904-4.41-2.766-5.588-2.393-2.764.878-5.841-.447-5.841-2.514 0-2.074 5.753-7.505 9.061-8.555 2.255-.716 6.821 3.431 6.903 6.269.069 2.397 3.004 1.229 3.767-1.5.423-1.512.769-7.77.769-13.905 0-13.555-2.652-17.348-12.5-17.882-1.375-.075-3.175-.381-4-.681-.825-.299-2.288-.34-3.25-.09M809 191v56h19V135h-19v56m423.147-43.954c-11.928 2.424-23.052 15.374-24.874 28.957l-.536 3.997h30.131c24.249 0 30.132-.257 30.132-1.316 0-20.815-16.117-35.446-34.853-31.638m-124.265 2.335c-30.621 10.942-32.258 68.355-2.269 79.575 16.137 6.038 31.966-.39 39.297-15.956 4.106-8.72 3.968-39.695-.216-48.214-6.64-13.522-22.964-20.354-36.812-15.405m-702.382 4.5c-7.036 1.84-14.312 7.906-18.134 15.119-2.691 5.078-3.336 35.171-.892 41.571 6.786 17.77 31.845 22.219 44.428 7.888 11.507-13.106 12.075-40.218 1.152-55.07-5.401-7.345-17.821-11.792-26.554-9.508m604.31 36.162C989.391 192.424 978 201.361 978 215c0 24.053 34.622 26.71 45.613 3.5 2.087-4.407 2.369-6.452 2.377-17.25L1026 189l-4.75.131c-2.612.073-7.76.483-11.44.912m-470.31 1.93c-19.161 2.376-27.164 9.258-26.313 22.624.622 9.765 5.969 14.421 16.513 14.381 15.514-.059 23.949-10.994 23.125-29.978l-.325-7.5-3.5-.136c-1.925-.074-6.2.199-9.5.609M421.384 306.345c-15.067 3.853-23.606 14.457-23.606 29.313 0 22.83 21.595 34.354 49.722 26.535l3-.834.278-13.68.278-13.679H430v2.5c0 2.41.233 2.5 6.5 2.5h6.5v8.981c0 10.514-.081 10.581-12.5 10.358-15.386-.276-24.86-9.17-24.86-23.339 0-18.535 19.524-29.165 39.493-21.502 1.181.453 1.915-.197 2.671-2.366.983-2.819.861-3.054-2.131-4.113-4.997-1.767-18.543-2.143-24.289-.674m122.856.765c-7.456 3.691-10.707 10.916-8.254 18.347 1.543 4.675 7.045 8.725 15.821 11.645 8.491 2.826 12.205 6.359 12.161 11.571-.075 9.048-10.175 12.781-22.792 8.423l-5.323-1.839-.934 2.456c-1.266 3.33-.658 3.99 5.305 5.761 18.587 5.52 34.151-4.002 31.308-19.153-1.021-5.444-5.759-9.545-14.924-12.917-12.988-4.779-16.815-10.565-11.259-17.024 2.787-3.24 11.898-4.444 18.112-2.393 4.201 1.387 4.151 1.408 5.048-2.167.614-2.447.342-2.768-3.169-3.742-6.538-1.816-16.312-1.338-21.1 1.032m145.092-.259C676.338 311.342 669 321.854 669 335.981c0 20.525 18.713 32.965 42.233 28.076 6.399-1.33 7.09-1.923 6.23-5.347-.59-2.35-.666-2.364-5.748-1.046-19.199 4.98-34.632-5.005-34.693-22.446-.061-17.486 15.646-28.064 34.587-23.295 5.008 1.261 6.342.607 6.376-3.126.035-3.93-19.142-5.232-28.653-1.946m210.418-1.181-4.75.44V364h7v-25h7.1c9.906 0 12.637 2.714 15.846 15.75l2.278 9.25h3.888c2.138 0 3.888-.249 3.888-.554 0-1.661-5.346-19.215-6.577-21.594-.796-1.541-2.652-3.432-4.124-4.203l-2.676-1.403 2.938-1.528c11.985-6.232 11.744-22.227-.413-27.403-3.547-1.51-16.449-2.38-24.398-1.645m104.22 1.58c-12.413 6.271-11.928 21.664.853 27.066 17.89 7.563 19.177 8.515 19.177 14.184 0 8.939-11.225 13.066-23.18 8.524-5.942-2.258-5.606-2.346-6.408 1.667-.729 3.646 2.078 5.024 12.203 5.99 12.526 1.195 21.944-3.615 24.314-12.418 2.735-10.158-2.665-17.212-16.622-21.712-9.351-3.014-13.201-7.688-11.16-13.544 1.953-5.602 12.297-7.938 20.315-4.587 3.371 1.408 3.407 1.395 4.468-1.649.589-1.688 1.07-3.206 1.07-3.373 0-.952-8.427-2.388-14.038-2.392-4.802-.005-7.721.591-10.992 2.244M287 335v29h36v-6h-28v-21h25v-6h-25v-19h27v-6h-35v29m49-.055V364h7v-49.113l11.308 16.806c21.856 32.485 21.683 32.269 25.942 32.289L384 364v-58h-7.319l.639 24.175.639 24.175-4.925-7.925c-2.709-4.359-10.032-15.125-16.273-23.925l-11.347-16-4.707-.305-4.707-.305v29.055M466 335v29h35v-6h-28v-52h-7v29m47 0v29h7v-58h-7v29m73 0v29h6.944l.278-13.75.278-13.75 16.25-.275 16.25-.275V364h8v-58h-8v24h-33v-24h-7v29m145 0v29h36v-6h-28v-21h25v-6h-25v-19h27v-6h-35v29m49-.055V364h7v-49.113l11.308 16.806c21.856 32.485 21.683 32.269 25.942 32.289L828 364v-58h-7.32l.661 24.21.662 24.211-4.925-7.961c-2.708-4.378-10.048-15.16-16.31-23.96l-11.387-16-4.69-.305-4.691-.305v29.055M838 309v3h20v52h7v-52h21v-6h-48v3m110 26v29h35v-6h-28v-21h25v-5.938l-12.25-.281-12.25-.281-.288-9.25-.287-9.25H982v-6h-34v29m-45.333-23.333c-.367.366-.667 5.316-.667 11V333h7.032c8.523 0 13.309-1.825 15.402-5.872 3.219-6.226 1.204-12.128-5.033-14.734-3.391-1.417-15.518-1.944-16.734-.727" fill-rule="evenodd"/></svg>