<svg width="25" height="25" viewBox="0 0 25 25" fill="none" xmlns="http:/www.w3.org/2000/svg">
  <path d="M15.5 7.54932C15.5 8.1016 15.0523 8.54932 14.5 8.54932C13.9477 8.54932 13.5 8.1016 13.5 7.54932C13.5 6.99703 13.9477 6.54932 14.5 6.54932C15.0523 6.54932 15.5 6.99703 15.5 7.54932Z" fill="#F53838"/>
  <path d="M19.5 7.54932C19.5 8.1016 19.0523 8.54932 18.5 8.54932C17.9477 8.54932 17.5 8.1016 17.5 7.54932C17.5 6.99703 17.9477 6.54932 18.5 6.54932C19.0523 6.54932 19.5 6.99703 19.5 7.54932Z" fill="#F53838"/>
  <path d="M15.5 17.5493C15.5 18.1016 15.0523 18.5493 14.5 18.5493C13.9477 18.5493 13.5 18.1016 13.5 17.5493C13.5 16.997 13.9477 16.5493 14.5 16.5493C15.0523 16.5493 15.5 16.997 15.5 17.5493Z" fill="#F53838"/>
  <path d="M19.5 17.5493C19.5 18.1016 19.0523 18.5493 18.5 18.5493C17.9477 18.5493 17.5 18.1016 17.5 17.5493C17.5 16.997 17.9477 16.5493 18.5 16.5493C19.0523 16.5493 19.5 16.997 19.5 17.5493Z" fill="#F53838"/>
  <rect x="3" y="10" width="4" height="10" fill="#F53838"/>
  <rect x="8" y="6" width="4" height="14" fill="#F53838"/>
  <rect x="13" y="12" width="4" height="8" fill="#F53838"/>
  <rect x="18" y="8" width="4" height="12" fill="#F53838"/>
  <rect x="3" y="18" width="2" height="2" fill="#FFF"/>
  <rect x="9" y="12" width="2" height="2" fill="#FFF"/>
  <rect x="9" y="8" width="2" height="2" fill="#FFF"/>
  <rect x="14" y="14" width="2" height="2" fill="#FFF"/>
  <rect x="19" y="14" width="2" height="2" fill="#FFF"/>
</svg>
